<?xml version="1.0" standalone="no"?><!DOCTYPE svg PUBLIC "-//W3C//DTD SVG 1.1//EN" "http://www.w3.org/Graphics/SVG/1.1/DTD/svg11.dtd"><svg t="1481866428299" class="icon" style="" viewBox="0 0 1024 1024" version="1.1" xmlns="http://www.w3.org/2000/svg" p-id="5654" xmlns:xlink="http://www.w3.org/1999/xlink" width="200" height="200"><defs><style type="text/css"></style></defs><path d="M916.891564 313.287239c-89.741907 0-91.63093-30.685883-161.795966-30.685883-47.406706 0-40.449247 30.685883-40.449247 30.685883l0 501.217423-0.189312 0c-2.047636 68.924789-27.181059 143.18919-171.717943 143.18919-72.592318 0-131.459031-50.371224-131.459031-112.502283 0-62.129013 58.866712-112.527866 131.459031-112.527866 18.2302 0 75.369571 0 111.234407 0L653.973502 98.503455c0 0-2.885723-30.685883 40.449247-30.685883 106.893542 20.467147 262.918062 40.286542 262.918062 71.595618 0 31.333636 0 143.18919 0 143.18919S957.339788 313.287239 916.891564 313.287239L916.891564 313.287239zM67.463508 564.503794l465.163275 0 0 62.075801L67.463508 626.579595 67.463508 564.503794 67.463508 564.503794zM67.463508 398.931828l465.163275 0 0 62.075801L67.463508 461.007629 67.463508 398.931828 67.463508 398.931828zM67.463508 233.360885l465.163275 0 0 62.075801L67.463508 295.436686 67.463508 233.360885 67.463508 233.360885z" p-id="5655" fill="#515151"></path></svg>