<?xml version="1.0" standalone="no"?><!DOCTYPE svg PUBLIC "-//W3C//DTD SVG 1.1//EN" "http://www.w3.org/Graphics/SVG/1.1/DTD/svg11.dtd"><svg t="1481767804851" class="icon" style="" viewBox="0 0 1024 1024" version="1.1" xmlns="http://www.w3.org/2000/svg" p-id="3104" xmlns:xlink="http://www.w3.org/1999/xlink" width="200" height="200"><defs><style type="text/css"></style></defs><path d="M261.8 135.2h57.3c31.6 0.1 57.2 25.7 57.3 57.3v641.2c-0.1 31.6-25.7 57.2-57.3 57.3h-57.3c-31.6-0.1-57.2-25.7-57.3-57.3V192.4c0.2-31.6 25.7-57.1 57.3-57.2z m446.6 0h57.3c31.6 0.1 57.2 25.7 57.3 57.3v641.2c-0.1 31.6-25.7 57.2-57.3 57.3h-57.3c-31.6-0.1-57.2-25.7-57.3-57.3V192.4c0.1-31.6 25.7-57.1 57.3-57.2z" p-id="3105"></path></svg>