<?xml version="1.0" encoding="utf-8"?>
<!DOCTYPE svg PUBLIC "-//W3C//DTD SVG 1.1//EN" "http://www.w3.org/Graphics/SVG/1.1/DTD/svg11.dtd">
<svg style="width:308px;height:308px;" version="1.1" id="图形" xmlns="http://www.w3.org/2000/svg" xmlns:xlink="http://www.w3.org/1999/xlink" x="0px" y="0px" width="1024px" height="1024px" viewBox="0 0 1024 1024" enable-background="new 0 0 1024 1024" xml:space="preserve">
  <path class="svgpath" data-index="path_0" fill="#272636" d="M682.957627 593.431637c-39.454594 0-137.726781-11.496845-197.710944-117.875664-1.467421-2.628874-2.074242-5.646604-1.714038-8.632611 0.221034-1.938142 25.481348-193.47855 236.58123-205.776643 0.084934 0 0.166799 0 0.221034 0 23.26896 0 199.096501 6.377244 238.853993 206.176756 1.246387 6.252401-1.824555 12.547781-7.52437 15.412015-5.643534 2.87549-12.58769 1.589195-16.876366-3.14155-0.802272-0.898463-82.504062-89.807399-186.036044-89.807399-9.654894 0-19.367093 0.776689-28.829606 2.322905-4.621251 0.416486-86.351694 7.983835-96.281857 86.946234-0.334621 2.614547-6.697539 61.077054 79.265298 85.796038 6.420223 1.853208 10.652618 7.955182 10.181897 14.622022-0.49835 6.683213-5.617951 12.120039-12.230556 13.032828C700.857299 592.504522 694.190459 593.431637 682.957627 593.431637zM512.333598 465.787492c33.530674 56.872289 79.596849 81.552387 117.447922 92.009554-40.119743-36.686551-34.30941-81.908498-34.224476-82.532715 10.264784-81.467453 83.665515-108.427478 121.015168-111.26306 9.768481-1.6465 21.00029-2.547009 32.178887-2.547009 71.961962 0 132.747373 36.411281 169.518858 65.128323C867.581508 293.656133 738.40138 289.434995 722.43985 289.434995 549.074384 299.493072 516.980431 438.299441 512.333598 465.787492z" />
<path class="svgpath" data-index="path_1" fill="#272636" d="M720.448496 762.853281c-20.033265 0-196.884113-5.782703-236.751099-206.190059-1.243317-6.252401 1.827625-12.547781 7.52437-15.412015 5.699816-2.849908 12.590759-1.577938 16.877389 3.139503 0.804319 0.900509 82.504062 89.781816 186.03502 89.781816 0.028653 0 0.028653 0 0.028653 0 9.654894 0 19.367093-0.776689 28.858258-2.322905 4.621251-0.416486 86.323041-7.969509 96.253204-86.946234 0.334621-2.614547 6.723122-61.073984-79.212086-85.781712-6.445806-1.841951-10.677177-7.955182-10.207479-14.622022 0.49835-6.683213 5.614881-12.120039 12.227486-13.032828 0 0.042979 138.503471-19.712971 215.556381 116.963898 1.467421 2.628874 2.076288 5.643534 1.717108 8.632611-0.221034 1.938142-25.399483 193.47855-236.5843 205.749014C722.494085 762.824629 720.722742 762.853281 720.448496 762.853281zM524.615319 597.401042C575.331397 730.302935 704.482873 734.522026 720.448496 734.522026l0 14.165628 1.105171-14.179954C893.341195 724.521255 925.794327 585.671906 930.553725 558.170552c-33.532721-56.816007-79.542614-81.509409-117.365035-91.966575 40.089044 36.657898 34.253128 81.880869 34.168194 82.504062-10.237155 81.480756-83.637886 108.427478-120.989585 111.248733-9.765411 1.648546-21.024849 2.547009-32.204469 2.547009l-0.028653 0C622.172215 662.503782 561.386804 626.105804 524.615319 597.401042z" />
<path class="svgpath" data-index="path_2" fill="#272636" d="M410.655847 424.272983c0 20.721951-16.766872 37.502126-37.46324 37.502126-20.74958 0-37.545104-16.781198-37.545104-37.502126s16.794501-37.516452 37.545104-37.516452C393.888975 386.756531 410.655847 403.551032 410.655847 424.272983z" />
<path class="svgpath" data-index="path_3" fill="#272636" d="M142.971226 716.508767l0-292.235784c0-20.721951-17.568121-37.530778-39.229466-37.530778-21.665439 0-39.20593 16.808828-39.20593 37.530778l0 292.235784L142.971226 716.508767z" />
<path class="svgpath" data-index="path_4" fill="#272636" d="M309.225737 716.508767l0-119.839389c0-20.696368-17.568121-37.505195-39.23356-37.505195-21.662369 0-39.201837 16.808828-39.201837 37.505195l0 119.839389L309.225737 716.508767z" />
<path class="svgpath" data-index="path_5" fill="#272636" d="M414.114622 716.508767 414.114622 512.683569c0-20.707624-17.59575-37.502126-39.261189-37.502126-21.662369 0-39.204907 16.794501-39.204907 37.502126l0 203.825199L414.114622 716.508767z" />
<path class="svgpath" data-index="path_6" fill="#272636" d="M186.879248 475.181443c-67.561745 0-122.343419 54.781674-122.343419 122.357745 0 52.031027 32.620955 96.185666 78.435397 113.880677L142.971226 596.199681c0-24.305569 19.727297-43.97863 44.021609-43.97863 24.291243 0 43.962258 19.673062 43.962258 43.97863 0 0.317225-0.164752 0.581238-0.164752 0.898463l0 114.322745c45.788859-17.696034 78.435397-61.850673 78.435397-113.880677C309.225737 529.963117 254.444063 475.181443 186.879248 475.181443z" />

</svg>
