<?xml version="1.0" encoding="utf-8"?>
<!DOCTYPE svg PUBLIC "-//W3C//DTD SVG 1.1//EN" "http://www.w3.org/Graphics/SVG/1.1/DTD/svg11.dtd">
<svg style="width:308px;height:308px;" version="1.1" id="图形" xmlns="http://www.w3.org/2000/svg" xmlns:xlink="http://www.w3.org/1999/xlink" x="0px" y="0px" width="1024px" height="1024px" viewBox="0 0 1024 1024" enable-background="new 0 0 1024 1024" xml:space="preserve">
  <path class="svgpath" data-index="path_0" fill="#000000" d="M869.504 408.533333l0 274.581333c0 41.173333-7.616 80.704-21.461333 117.248L848.042667 372.714667l43.114667 0c15.744 0 28.672-12.864 28.672-28.608L919.829333 202.816l-71.786667 0L848.042667 166.997333l48.704 0L896.746667 41.642667l-48.704 0 0-35.84 66.624 0c8.96 0 17.92 8.96 17.92 17.92l0 143.274667 5.162667 0c8.96 0 17.92 8.96 17.92 17.898667l0 159.189333c0 35.349333-29.205333 64.448-64.490667 64.448L869.504 408.533333zM848.042667 800.384c-47.914667 126.698667-170.922667 217.834667-313.621333 217.834667-143.786667 0-267.178667-91.84-314.453333-219.754667l0-343.466667 64.192 0c28.330667 0 51.605333-23.210667 51.605333-51.541333L335.765333 202.816l-115.818667 0 0-35.84 76.714667 0L296.661333 41.642667l-76.714667 0 0-35.84 94.634667 0c8.96 0 17.92 8.96 17.92 17.92l0 143.253333 21.141333 0c8.96 0 17.92 8.96 17.92 17.92l0 218.56c0 47.957333-39.573333 87.36-87.424 87.36l-41.813333 0 0 192.32c0 160.618667 131.434667 292.074667 292.053333 292.074667 160.213333 0 292.074667-131.925333 292.074667-292.074667L826.453333 408.533333l-21.333333 0c-35.285333 0-64.448-29.12-64.448-64.448L740.672 184.896c0-8.938667 8.96-17.898667 17.92-17.898667l4.906667 0L763.498667 23.722667c0-8.96 8.96-17.92 17.92-17.92l66.581333 0 0 35.84-48.661333 0 0 125.354667 48.661333 0 0 35.818667L776.533333 202.816l0 141.290667c0 15.722667 12.842667 28.608 28.629333 28.608l42.88 0L848.042667 800.384zM219.968 798.464c-13.312-35.968-20.586667-74.837333-20.586667-115.328l0-192.32L155.776 490.816c-47.914667 0-87.424-39.424-87.424-87.36L68.352 184.896c0-8.96 8.96-17.92 17.92-17.92l21.184 0L107.456 23.722667c0-8.96 8.938667-17.92 17.898667-17.92l94.634667 0 0 35.84L143.253333 41.642667l0 125.333333 76.714667 0 0 35.84L104.149333 202.816l0 200.64c0 28.309333 23.232 51.541333 51.605333 51.541333l64.192 0L219.946667 798.464z" />

</svg>
